  <svg viewBox="0 0 420.31631 217.56969" xmlns="http://www.w3.org/2000/svg">
    <g
      transform="translate(-64.499 -302.75)"
      fill="#fff"
      stroke="#000"
      stroke-linecap="round"
      stroke-linejoin="round"
    >
      <path
        d="m83.918 451.82-17.231 8.2156-1.1884 19.952 17.231 0.58683z"
        stroke-width="4"
      />
      <path
        d="m467.53 451.35 15.574 4.6139 0.70792 21.916h-13.45z"
        stroke-width="4"
      />
      <path
        d="m78.237 481.05 393.01-2.0594c-0.85883-62.033-4.8518-169.38-37.288-170.79-100.2-5.5797-197.51-6.3863-292.11 0.34688-28.637 14.5-53.407 49.043-61.015 88.606-5.9697 31.042-2.4261 66.364-2.5914 83.897z"
        stroke-width="4"
      />
      <path
        d="m194.75 476.97c1.5922 26.697-28.945 50.409-54.84 39.735-25.926-9.0053-36.088-44.161-18.981-65.259 12.322-17.181 39.098-22.419 56.181-8.9739 10.962 7.9084 18.064 21.055 17.64 34.498z"
        stroke-width="4"
      />
      <path
        d="m177.29 476.45c0.87005 14.6-15.817 27.568-29.968 21.73-14.167-4.9249-19.72-24.151-10.372-35.689 6.7337-9.3958 21.365-12.261 30.701-4.9077 5.9904 4.325 9.871 11.514 9.6395 18.866z"
        className="stroke-2"
      />
      <path
        d="m92.793 400.08c3.4505-33.976 21.796-52.672 45.487-78.237h18.195l-0.90974 77.328z"
        className="stroke-2"
      />
      <path
        d="m163.75 320.93-1e-5 78.237h92.793l0.90975-78.237z"
        className="stroke-2"
      />
      <path
        d="m265.64 319.11-0.90975 79.147h98.252v-78.237z"
        className="stroke-2"
      />
      <path
        d="m371.17 320.02 1.8195 78.237h81.876c0.71345-26.109-6.4396-53.823-19.104-76.418z"
        className="stroke-2"
      />
      <path
        d="m79.162 410.23 390.26-1.0565-0.9248 13.91-390.26 2.4651z"
        className="stroke-2"
      />
      <g transform="translate(249.27 -5.4584)">
        <path
          d="m194.75 476.97c1.5922 26.697-28.945 50.409-54.84 39.735-25.926-9.0053-36.088-44.161-18.981-65.259 12.322-17.181 39.098-22.419 56.181-8.9739 10.962 7.9084 18.064 21.055 17.64 34.498z"
          stroke-width="4"
        />
        <path
          d="m177.29 476.45c0.87005 14.6-15.817 27.568-29.968 21.73-14.167-4.9249-19.72-24.151-10.372-35.689 6.7337-9.3958 21.365-12.261 30.701-4.9077 5.9904 4.325 9.871 11.514 9.6395 18.866z"
          className="stroke-2"
        />
      </g>
    </g>
  </svg>
